<?xml version="1.0" encoding="UTF-8" standalone="no"?>
<!-- Created with Inkscape (http://www.inkscape.org/) -->

<svg
   xmlns:dc="http://purl.org/dc/elements/1.1/"
   xmlns:cc="http://creativecommons.org/ns#"
   xmlns:rdf="http://www.w3.org/1999/02/22-rdf-syntax-ns#"
   xmlns:svg="http://www.w3.org/2000/svg"
   xmlns="http://www.w3.org/2000/svg"
   xmlns:sodipodi="http://sodipodi.sourceforge.net/DTD/sodipodi-0.dtd"
   xmlns:inkscape="http://www.inkscape.org/namespaces/inkscape"
   width="53.157532mm"
   height="53.157532mm"
   viewBox="0 0 53.157532 53.157532"
   version="1.1"
   id="svg4909"
   inkscape:version="0.92.4 5da689c313, 2019-01-14"
   sodipodi:docname="logo_bw.svg"
   inkscape:export-filename="C:\Users\doc\Desktop\logo\logo_white.png"
   inkscape:export-xdpi="400"
   inkscape:export-ydpi="400">
  <defs
     id="defs4903">
    <filter
       style="color-interpolation-filters:sRGB"
       inkscape:label="Blur"
       id="filter4045"
       x="-0.1"
       y="-0.33000001"
       height="1.6900001">
      <feGaussianBlur
         stdDeviation="0.80000000000000004 0.80000000000000004"
         result="blur"
         id="feGaussianBlur4043" />
    </filter>
    <filter
       style="color-interpolation-filters:sRGB"
       inkscape:label="Blur"
       id="filter3934">
      <feGaussianBlur
         stdDeviation="0.6 0.6"
         result="blur"
         id="feGaussianBlur3932" />
    </filter>
  </defs>
  <sodipodi:namedview
     id="base"
     pagecolor="#ffffff"
     bordercolor="#666666"
     borderopacity="1.0"
     inkscape:pageopacity="0.0"
     inkscape:pageshadow="2"
     inkscape:zoom="2.8284271"
     inkscape:cx="118.0841"
     inkscape:cy="105.49313"
     inkscape:document-units="mm"
     inkscape:current-layer="layer1"
     showgrid="false"
     inkscape:window-width="1920"
     inkscape:window-height="1080"
     inkscape:window-x="0"
     inkscape:window-y="0"
     inkscape:window-maximized="0" />
  <metadata
     id="metadata4906">
    <rdf:RDF>
      <cc:Work
         rdf:about="">
        <dc:format>image/svg+xml</dc:format>
        <dc:type
           rdf:resource="http://purl.org/dc/dcmitype/StillImage" />
        <dc:title />
      </cc:Work>
    </rdf:RDF>
  </metadata>
  <g
     inkscape:label="Layer 1"
     inkscape:groupmode="layer"
     id="layer1"
     transform="translate(15.239479,0.20971751)">
    <rect
       y="0.88278246"
       x="-14.146979"
       height="50.97253"
       width="50.97253"
       id="rect1178-4"
       style="fill:none;stroke:#000000;stroke-width:2.18499994;stroke-linecap:round;stroke-linejoin:miter;stroke-miterlimit:4;stroke-dasharray:none" />
    <g
       id="g903"
       transform="matrix(1.1152092,0,0,1.1152092,0.02876366,-1.7047048)">
      <path
         inkscape:connector-curvature="0"
         style="fill:#21ff97;fill-opacity:1;stroke:#ffffff;stroke-width:0.1;stroke-linecap:butt;stroke-linejoin:round;stroke-miterlimit:4;stroke-dasharray:none;stroke-opacity:1"
         d="M 5.47836,17.45803 C 5.73911,16.23415 6.19117,15.25767 5.73067,15.01971 5.1872,14.73403 4.07075,14.16679 3.7071,13.97403 c 0.39509,0.32591 0.008,1.21445 -0.25231,2.43833 -0.30555,1.43423 -0.49802,3.07634 -0.0733,3.29579 l 1.16022,0.59953 0.86336,0.44613 c -0.4247,-0.21944 -0.23223,-1.86154 0.0733,-3.29578 z"
         id="path3724-8-5-0-6-9-2" />
      <path
         inkscape:connector-curvature="0"
         style="fill:#21ff97;fill-opacity:1;stroke:#ffffff;stroke-width:0.1;stroke-linecap:butt;stroke-linejoin:round;stroke-miterlimit:4;stroke-dasharray:none;stroke-opacity:1"
         d="m 9.52551,19.54938 c 0.26075,-1.22388 0.71281,-2.20036 0.2523,-2.43832 -0.54347,-0.28568 -1.65992,-0.85292 -2.02357,-1.04568 0.39509,0.32591 0.008,1.21445 -0.2523,2.43832 -0.30556,1.43424 -0.49802,3.07635 -0.0733,3.29579 l 1.16021,0.59953 0.86336,0.44615 c -0.4247,-0.21944 -0.23224,-1.86155 0.0733,-3.29579 z"
         id="path3724-8-5-0-6-0-0-8" />
      <path
         style="fill:none;fill-opacity:1;stroke:#ffffff;stroke-width:0.1;stroke-linecap:butt;stroke-linejoin:round;stroke-miterlimit:4;stroke-dasharray:none;stroke-opacity:1"
         d="m 7.42862,21.79949 c 2.50687,-1.27412 3.08878,-3.92048 4.88478,-3.41011 -0.0106,0.01 -0.065,0.17488 -0.0751,0.18484 -1.93047,1.89971 -1.9804,4.54383 -2.78604,4.27096 z"
         id="path4740-2-0-1-7-8-9"
         inkscape:connector-curvature="0"
         sodipodi:nodetypes="ccscc" />
      <path
         sodipodi:nodetypes="csccccc"
         inkscape:connector-curvature="0"
         style="fill:#21ff97;fill-opacity:1;stroke:#ffffff;stroke-width:0.1;stroke-linecap:butt;stroke-linejoin:round;stroke-miterlimit:4;stroke-dasharray:none;stroke-opacity:1"
         d="m 10.073503,23.307257 c 0.03754,0.05528 0.114457,0.09124 0.104546,0.137627 -0.2727892,1.263528 2.354735,4.281794 1.510995,4.852297 L 10.528842,28.89672 9.6654797,29.342859 C 10.55535,26.948632 8.4861506,24.165244 10.073583,23.307214 Z"
         id="path3724-8-9-8-5-3" />
      <path
         style="fill:none;fill-opacity:1;stroke:#ffffff;stroke-width:0.1;stroke-linecap:butt;stroke-linejoin:miter;stroke-miterlimit:4;stroke-dasharray:none;stroke-opacity:1"
         d="M 11.688964,28.297224 C 10.811289,28.75076 8.1445532,24.226412 7.3161974,24.654466 6.9525547,24.847219 5.8360956,25.414459 5.2926241,25.70014 v 0 c 0.6465692,-0.33411 3.4951014,4.096297 4.3727751,3.642763 z"
         id="path4740-18-8-2-7"
         inkscape:connector-curvature="0"
         sodipodi:nodetypes="ccccc" />
      <path
         inkscape:connector-curvature="0"
         style="fill:#21ff97;fill-opacity:1;stroke:#ffffff;stroke-width:0.1;stroke-linecap:butt;stroke-linejoin:round;stroke-miterlimit:4;stroke-dasharray:none;stroke-opacity:1"
         d="M 5.5449266,28.138463 C 5.2841806,26.914581 4.8321208,25.938102 5.2926241,25.70014 c 0.5434715,-0.285681 1.6599306,-0.852921 2.0235733,-1.045674 -0.3950841,0.325907 -0.00844,1.214441 0.2523029,2.438322 0.3055571,1.434236 0.4980173,3.076344 0.073326,3.295788 l -1.1602116,0.599536 -0.8633621,0.446139 c 0.4246921,-0.219445 0.232232,-1.861553 -0.073326,-3.295788 z"
         id="path3724-8-5-3-5-2-3" />
      <path
         style="fill:none;fill-opacity:1;stroke:#ffffff;stroke-width:0.1;stroke-linecap:butt;stroke-linejoin:miter;stroke-miterlimit:4;stroke-dasharray:none;stroke-opacity:1"
         d="M 7.6418258,30.388576 C 6.7641518,30.842112 4.0974152,26.317765 3.2690504,26.745815 2.9054077,26.938568 1.7889576,27.505812 1.2454767,27.79149 v 0 c 0.6465696,-0.334111 3.4951018,4.096296 4.3727754,3.642761 z"
         id="path4740-2-7-5-6-8"
         inkscape:connector-curvature="0"
         sodipodi:nodetypes="ccccc" />
      <path
         inkscape:connector-curvature="0"
         style="fill:#21ff97;fill-opacity:1;stroke:#ffffff;stroke-width:0.1;stroke-linecap:butt;stroke-linejoin:round;stroke-miterlimit:4;stroke-dasharray:none;stroke-opacity:1"
         d="M 1.4977889,30.229816 C 1.2370426,29.005934 0.78498314,28.029454 1.2454767,27.79149 c 0.5434809,-0.285678 1.659931,-0.852922 2.0235737,-1.045675 -0.3950841,0.325907 -0.00843,1.214444 0.2523029,2.438322 0.3055571,1.434236 0.4980173,3.076344 0.073326,3.295788 L 2.4344671,33.079461 1.5711051,33.5256 c 0.4246918,-0.219445 0.2322316,-1.861552 -0.073316,-3.295784 z"
         id="path3724-8-2-7-8-5-2" />
      <path
         style="fill:none;fill-opacity:1;stroke:#ffffff;stroke-width:0.1;stroke-linecap:butt;stroke-linejoin:miter;stroke-miterlimit:4;stroke-dasharray:none;stroke-opacity:1"
         d="M 3.5946788,32.479925 C 2.7170048,32.933461 0.05026817,28.409114 -0.77809663,28.837163 -1.1417397,29.029918 -2.2581895,29.597161 -2.801661,29.882842 v 0 c 0.6465599,-0.334113 3.49509207,4.096294 4.3727661,3.642758 z"
         id="path4740-1-8-4-9-0"
         inkscape:connector-curvature="0"
         sodipodi:nodetypes="ccccc" />
      <path
         inkscape:connector-curvature="0"
         style="fill:#21ff97;fill-opacity:1;stroke:#ffffff;stroke-width:0.1;stroke-linecap:butt;stroke-linejoin:round;stroke-miterlimit:4;stroke-dasharray:none;stroke-opacity:1"
         d="m -2.5493581,32.321165 c -0.2607464,-1.223882 -0.7128058,-2.200362 -0.2523029,-2.438323 0.5434715,-0.285681 1.6599213,-0.852924 2.02356437,-1.045679 -0.39508417,0.325907 -0.008434,1.214445 0.25231224,2.438327 0.30554774,1.434232 0.49801727,3.076343 0.0733158,3.295785 l -1.16021131,0.599535 -0.863362,0.446139 c 0.4247011,-0.219441 0.2322316,-1.861552 -0.073316,-3.295784 z"
         id="path3724-8-5-0-6-3-5-8" />
      <path
         style="fill:none;fill-opacity:1;stroke:#ffffff;stroke-width:0.1;stroke-linecap:butt;stroke-linejoin:miter;stroke-miterlimit:4;stroke-dasharray:none;stroke-opacity:1"
         d="M -0.45246858,34.571275 C -1.3301423,35.02481 -3.9968789,30.500463 -4.8252343,30.928516 -5.1888867,31.121267 -6.3053365,31.68851 -6.848808,31.974191 v 0 c 0.6465692,-0.33411 3.495092,4.096294 4.3727661,3.642758 z"
         id="path4740-2-0-1-3-1-3"
         inkscape:connector-curvature="0"
         sodipodi:nodetypes="ccccc" />
      <path
         style="fill:none;fill-opacity:1;stroke:#ffffff;stroke-width:0.26458332px;stroke-linecap:butt;stroke-linejoin:miter;stroke-opacity:1"
         d="m 10.07686,23.42621 c 0.68398,-0.9509 7.35254,-0.56129 4.90054,-2.95524 -0.81364,-0.69626 -1.96048,-1.74074 -2.69507,-2.0027 -10e-4,-5e-4 -0.003,-0.001 -0.004,-0.001"
         id="path1083-9-3"
         inkscape:connector-curvature="0"
         sodipodi:nodetypes="ccsc" />
      <path
         sodipodi:nodetypes="csccccc"
         inkscape:connector-curvature="0"
         style="fill:#000000;fill-opacity:1;stroke:#000000;stroke-width:0.1;stroke-linecap:butt;stroke-linejoin:round;stroke-miterlimit:4;stroke-dasharray:none;stroke-opacity:1"
         d="m 10.0735,23.30726 c 0.0375,0.0553 0.11446,0.0912 0.10455,0.13762 -0.27279,1.26353 2.35473,4.2818 1.51099,4.8523 l -1.1602,0.59954 -0.86336,0.44614 c 0.88987,-2.39423 -1.17933,-5.17762 0.4081,-6.03565 z"
         id="path3724-8-9-8-5" />
      <path
         style="fill:none;fill-opacity:1;stroke:#000000;stroke-width:0.1;stroke-linecap:butt;stroke-linejoin:miter;stroke-miterlimit:4;stroke-dasharray:none;stroke-opacity:1"
         d="M 11.68896,28.29722 C 10.81129,28.75076 8.14455,24.22641 7.3162,24.65447 6.95255,24.84722 5.8361,25.41446 5.29262,25.70014 v 0 c 0.64657,-0.33411 3.49511,4.0963 4.37278,3.64276 z"
         id="path4740-18-8-2"
         inkscape:connector-curvature="0"
         sodipodi:nodetypes="ccccc" />
      <path
         inkscape:connector-curvature="0"
         style="fill:#000000;fill-opacity:1;stroke:#000000;stroke-width:0.1;stroke-linecap:butt;stroke-linejoin:round;stroke-miterlimit:4;stroke-dasharray:none;stroke-opacity:1"
         d="M 5.54493,28.13846 C 5.28418,26.91458 4.83212,25.9381 5.29262,25.70014 5.8361,25.41446 6.95255,24.84722 7.3162,24.65447 c -0.39509,0.3259 -0.008,1.21444 0.2523,2.43832 0.30556,1.43423 0.49802,3.07634 0.0733,3.29579 L 6.48158,30.98811 5.61822,31.43425 C 6.04291,31.21481 5.85045,29.5727 5.54492,28.13846 Z"
         id="path3724-8-5-3-5-2" />
      <path
         style="fill:none;fill-opacity:1;stroke:#000000;stroke-width:0.1;stroke-linecap:butt;stroke-linejoin:miter;stroke-miterlimit:4;stroke-dasharray:none;stroke-opacity:1"
         d="m 7.64183,30.38858 c -0.87768,0.45353 -3.54441,-4.07081 -4.37278,-3.64277 -0.36364,0.19276 -1.48009,0.76 -2.02357,1.04568 v 0 c 0.64657,-0.33411 3.4951,4.0963 4.37277,3.64276 z"
         id="path4740-2-7-5-6"
         inkscape:connector-curvature="0"
         sodipodi:nodetypes="ccccc" />
      <path
         inkscape:connector-curvature="0"
         style="fill:#000000;fill-opacity:1;stroke:#000000;stroke-width:0.1;stroke-linecap:butt;stroke-linejoin:round;stroke-miterlimit:4;stroke-dasharray:none;stroke-opacity:1"
         d="M 1.49779,30.22982 C 1.23704,29.00593 0.78498,28.02945 1.24548,27.79149 c 0.54348,-0.28568 1.65993,-0.85292 2.02357,-1.04568 -0.39508,0.32591 -0.008,1.21445 0.2523,2.43833 0.30556,1.43423 0.49802,3.07634 0.0733,3.29579 L 2.43444,33.07946 1.57108,33.5256 c 0.42469,-0.21944 0.23223,-1.86155 -0.0733,-3.29578 z"
         id="path3724-8-2-7-8-5" />
      <path
         style="fill:none;fill-opacity:1;stroke:#000000;stroke-width:0.1;stroke-linecap:butt;stroke-linejoin:miter;stroke-miterlimit:4;stroke-dasharray:none;stroke-opacity:1"
         d="M 3.59468,32.47993 C 2.717,32.93346 0.05027,28.40911 -0.7781,28.83716 c -0.36364,0.19276 -1.48009,0.76 -2.02356,1.04568 v 0 c 0.64656,-0.33411 3.49509,4.0963 4.37277,3.64276 z"
         id="path4740-1-8-4-9"
         inkscape:connector-curvature="0"
         sodipodi:nodetypes="ccccc" />
      <path
         inkscape:connector-curvature="0"
         style="fill:#000000;fill-opacity:1;stroke:#000000;stroke-width:0.1;stroke-linecap:butt;stroke-linejoin:round;stroke-miterlimit:4;stroke-dasharray:none;stroke-opacity:1"
         d="m -2.54936,32.32116 c -0.26074,-1.22388 -0.7128,-2.20036 -0.2523,-2.43832 0.54347,-0.28568 1.65992,-0.85292 2.02356,-1.04568 -0.39508,0.32591 -0.008,1.21445 0.25232,2.43833 0.30554,1.43423 0.49801,3.07634 0.0733,3.29579 l -1.16021,0.59953 -0.86336,0.44614 c 0.4247,-0.21944 0.23223,-1.86155 -0.0733,-3.29579 z"
         id="path3724-8-5-0-6-3-5" />
      <path
         style="fill:none;fill-opacity:1;stroke:#000000;stroke-width:0.1;stroke-linecap:butt;stroke-linejoin:miter;stroke-miterlimit:4;stroke-dasharray:none;stroke-opacity:1"
         d="m -0.45247,34.57128 c -0.87767,0.45353 -3.54441,-4.07082 -4.37276,-3.64276 -0.36366,0.19275 -1.48011,0.75999 -2.02358,1.04567 v 0 c 0.64657,-0.33411 3.49509,4.09629 4.37277,3.64276 z"
         id="path4740-2-0-1-3-1"
         inkscape:connector-curvature="0"
         sodipodi:nodetypes="ccccc" />
      <path
         inkscape:connector-curvature="0"
         style="fill:#000000;fill-opacity:1;stroke:#000000;stroke-width:0.1;stroke-linecap:butt;stroke-linejoin:round;stroke-miterlimit:4;stroke-dasharray:none;stroke-opacity:1"
         d="m -6.59651,34.41251 c -0.26074,-1.22388 -0.7128,-2.20036 -0.2523,-2.43832 0.54347,-0.28568 1.65992,-0.85292 2.02358,-1.04567 -0.3951,0.3259 -0.008,1.21444 0.2523,2.43832 0.30556,1.43423 0.49802,3.07634 0.0733,3.29578 l -1.16021,0.59954 -0.86335,0.44614 c 0.42469,-0.21944 0.23223,-1.86155 -0.0733,-3.29579 z"
         id="path3724-8-5-0-6-0-8-2" />
      <path
         style="fill:none;fill-opacity:1;stroke:#000000;stroke-width:0.1;stroke-linecap:butt;stroke-linejoin:round;stroke-miterlimit:4;stroke-dasharray:none;stroke-opacity:1"
         d="m -4.49962,36.66262 c -2.50686,-1.27411 -3.09024,-3.9424 -4.88624,-3.43203 1.4874,1.15862 2.21488,4.61227 2.86266,4.47772 z"
         id="path4740-2-0-1-7-2-5"
         inkscape:connector-curvature="0"
         sodipodi:nodetypes="cccc" />
      <path
         style="fill:none;fill-opacity:1;stroke:#000000;stroke-width:0.26458332px;stroke-linecap:butt;stroke-linejoin:miter;stroke-opacity:1"
         d="m 10.07686,23.42621 c 0.68398,-0.9509 7.35254,-0.56129 4.90054,-2.95524 -0.81364,-0.69626 -1.96048,-1.74074 -2.69507,-2.0027 -10e-4,-5e-4 -0.003,-0.001 -0.004,-0.001"
         id="path1083-9"
         inkscape:connector-curvature="0"
         sodipodi:nodetypes="ccsc" />
      <path
         style="fill:none;fill-opacity:1;stroke:#ffffff;stroke-width:0.1;stroke-linecap:butt;stroke-linejoin:miter;stroke-miterlimit:4;stroke-dasharray:none;stroke-opacity:1"
         d="m 3.38147,19.70814 c 0.87768,0.45353 3.54441,-4.07081 4.37277,-3.64275 0.36365,0.19275 1.4801,0.75999 2.02357,1.04567 v 0 C 9.13124,16.77695 6.28272,21.20735 5.40505,20.75381 Z"
         id="path4740-2-0-1-9-9"
         inkscape:connector-curvature="0"
         sodipodi:nodetypes="ccccc" />
      <path
         inkscape:connector-curvature="0"
         style="fill:#000000;fill-opacity:1;stroke:#000000;stroke-width:0.1;stroke-linecap:butt;stroke-linejoin:round;stroke-miterlimit:4;stroke-dasharray:none;stroke-opacity:1"
         d="m 9.52551,19.54938 c 0.26075,-1.22388 0.71281,-2.20036 0.2523,-2.43832 -0.54347,-0.28568 -1.65992,-0.85292 -2.02357,-1.04568 0.39509,0.32591 0.008,1.21445 -0.2523,2.43832 -0.30556,1.43424 -0.49802,3.07635 -0.0733,3.29579 l 1.16021,0.59953 0.86336,0.44615 c -0.4247,-0.21944 -0.23224,-1.86155 0.0733,-3.29579 z"
         id="path3724-8-5-0-6-0-0" />
      <path
         style="fill:none;fill-opacity:1;stroke:#000000;stroke-width:0.1;stroke-linecap:butt;stroke-linejoin:round;stroke-miterlimit:4;stroke-dasharray:none;stroke-opacity:1"
         d="m 7.42862,21.79949 c 2.50687,-1.27412 3.08878,-3.92048 4.88478,-3.41011 -0.0106,0.01 -0.065,0.17488 -0.0751,0.18484 -1.93047,1.89971 -1.9804,4.54383 -2.78604,4.27096 z"
         id="path4740-2-0-1-7-8"
         inkscape:connector-curvature="0"
         sodipodi:nodetypes="ccscc" />
      <path
         style="fill:none;fill-opacity:1;stroke:#ffffff;stroke-width:0.1;stroke-linecap:butt;stroke-linejoin:miter;stroke-miterlimit:4;stroke-dasharray:none;stroke-opacity:1"
         d="m -8.75996,13.43409 c 0.87768,0.45354 3.54441,-4.07081 4.37277,-3.64275 0.36364,0.19275 1.4801,0.75999 2.02357,1.04567 v 0 c -0.64657,-0.33411 -3.4951,4.0963 -4.37277,3.64276 z"
         id="path4740-18-4-3"
         inkscape:connector-curvature="0"
         sodipodi:nodetypes="ccccc" />
      <path
         inkscape:connector-curvature="0"
         style="fill:#21ff97;fill-opacity:1;stroke:#ffffff;stroke-width:0.1;stroke-linecap:butt;stroke-linejoin:round;stroke-miterlimit:4;stroke-dasharray:none;stroke-opacity:1"
         d="m -2.61592,13.27533 c 0.26074,-1.22388 0.7128,-2.20036 0.2523,-2.43832 -0.54347,-0.28568 -1.65993,-0.85292 -2.02357,-1.04567 0.39508,0.3259 0.008,1.21444 -0.2523,2.43832 -0.30556,1.43423 -0.49802,3.07634 -0.0733,3.29579 l 1.16021,0.59953 0.86336,0.44614 c -0.42469,-0.21944 -0.23223,-1.86155 0.0733,-3.29579 z"
         id="path3724-8-5-3-2-1" />
      <path
         style="fill:none;fill-opacity:1;stroke:#ffffff;stroke-width:0.1;stroke-linecap:butt;stroke-linejoin:miter;stroke-miterlimit:4;stroke-dasharray:none;stroke-opacity:1"
         d="m -4.71282,15.52545 c 0.87767,0.45353 3.54441,-4.07082 4.37278,-3.64277 0.36364,0.19276 1.48009,0.76 2.02357,1.04568 v 0 c -0.64657,-0.33411 -3.4951,4.0963 -4.37278,3.64276 z"
         id="path4740-2-7-4-2"
         inkscape:connector-curvature="0"
         sodipodi:nodetypes="ccccc" />
      <path
         inkscape:connector-curvature="0"
         style="fill:#21ff97;fill-opacity:1;stroke:#ffffff;stroke-width:0.1;stroke-linecap:butt;stroke-linejoin:round;stroke-miterlimit:4;stroke-dasharray:none;stroke-opacity:1"
         d="M 1.43122,15.36668 C 1.69196,14.1428 2.14402,13.16632 1.68353,12.92836 1.14005,12.64268 0.0236,12.07544 -0.34004,11.88268 c 0.39508,0.32591 0.008,1.21445 -0.25231,2.43833 -0.30555,1.43423 -0.49801,3.07634 -0.0733,3.29578 l 1.16022,0.59954 0.86336,0.44613 C 0.93324,18.44302 1.1257,16.80092 1.43123,15.36668 Z"
         id="path3724-8-2-7-7-2" />
      <path
         style="fill:none;fill-opacity:1;stroke:#ffffff;stroke-width:0.1;stroke-linecap:butt;stroke-linejoin:miter;stroke-miterlimit:4;stroke-dasharray:none;stroke-opacity:1"
         d="m -0.66567,17.61679 c 0.87767,0.45354 3.54441,-4.07081 4.37277,-3.64276 0.36365,0.19276 1.4801,0.76 2.02357,1.04568 v 0 C 5.08411,14.6856 2.23558,19.116 1.3579,18.66246 Z"
         id="path4740-1-8-0-97"
         inkscape:connector-curvature="0"
         sodipodi:nodetypes="ccccc" />
      <path
         id="path3724-8-9-8-6-9-8"
         d="m -7.2489655,8.5817999 c 0.272788,1.2635283 -2.3547365,4.2817941 -1.5109969,4.8522971 l 1.1602107,0.599535 0.8633618,0.44614 C -8.0145638,11.936597 -5.7920182,9.5035366 -7.2489655,8.5817999 Z"
         style="fill:#21ff97;fill-opacity:1;stroke:#ffffff;stroke-width:0.1;stroke-linecap:butt;stroke-linejoin:round;stroke-miterlimit:4;stroke-dasharray:none;stroke-opacity:1"
         inkscape:connector-curvature="0"
         sodipodi:nodetypes="ccccc" />
      <path
         style="fill:none;fill-opacity:1;stroke:#000000;stroke-width:0.1;stroke-linecap:butt;stroke-linejoin:miter;stroke-miterlimit:4;stroke-dasharray:none;stroke-opacity:1"
         d="m -8.75996,13.43409 c 0.87768,0.45354 3.54441,-4.07081 4.37277,-3.64275 0.36364,0.19275 1.4801,0.75999 2.02357,1.04567 v 0 c -0.64657,-0.33411 -3.4951,4.0963 -4.37277,3.64276 z"
         id="path4740-18-4"
         inkscape:connector-curvature="0"
         sodipodi:nodetypes="ccccc" />
      <path
         inkscape:connector-curvature="0"
         style="fill:#000000;fill-opacity:1;stroke:#000000;stroke-width:0.1;stroke-linecap:butt;stroke-linejoin:round;stroke-miterlimit:4;stroke-dasharray:none;stroke-opacity:1"
         d="m -2.61592,13.27533 c 0.26074,-1.22388 0.7128,-2.20036 0.2523,-2.43832 -0.54347,-0.28568 -1.65993,-0.85292 -2.02357,-1.04567 0.39508,0.3259 0.008,1.21444 -0.2523,2.43832 -0.30556,1.43423 -0.49802,3.07634 -0.0733,3.29579 l 1.16021,0.59953 0.86336,0.44614 c -0.42469,-0.21944 -0.23223,-1.86155 0.0733,-3.29579 z"
         id="path3724-8-5-3-2" />
      <path
         style="fill:none;fill-opacity:1;stroke:#000000;stroke-width:0.1;stroke-linecap:butt;stroke-linejoin:miter;stroke-miterlimit:4;stroke-dasharray:none;stroke-opacity:1"
         d="m -4.71282,15.52545 c 0.87767,0.45353 3.54441,-4.07082 4.37278,-3.64277 0.36364,0.19276 1.48009,0.76 2.02357,1.04568 v 0 c -0.64657,-0.33411 -3.4951,4.0963 -4.37278,3.64276 z"
         id="path4740-2-7-4"
         inkscape:connector-curvature="0"
         sodipodi:nodetypes="ccccc" />
      <path
         inkscape:connector-curvature="0"
         style="fill:#000000;fill-opacity:1;stroke:#000000;stroke-width:0.1;stroke-linecap:butt;stroke-linejoin:round;stroke-miterlimit:4;stroke-dasharray:none;stroke-opacity:1"
         d="M 1.43122,15.36668 C 1.69196,14.1428 2.14402,13.16632 1.68353,12.92836 1.14005,12.64268 0.0236,12.07544 -0.34004,11.88268 c 0.39508,0.32591 0.008,1.21445 -0.25231,2.43833 -0.30555,1.43423 -0.49801,3.07634 -0.0733,3.29578 l 1.16022,0.59954 0.86336,0.44613 C 0.93324,18.44302 1.1257,16.80092 1.43123,15.36668 Z"
         id="path3724-8-2-7-7" />
      <path
         style="fill:none;fill-opacity:1;stroke:#000000;stroke-width:0.1;stroke-linecap:butt;stroke-linejoin:miter;stroke-miterlimit:4;stroke-dasharray:none;stroke-opacity:1"
         d="m -0.66567,17.61679 c 0.87767,0.45354 3.54441,-4.07081 4.37277,-3.64276 0.36365,0.19276 1.4801,0.76 2.02357,1.04568 v 0 C 5.08411,14.6856 2.23558,19.116 1.3579,18.66246 Z"
         id="path4740-1-8-0"
         inkscape:connector-curvature="0"
         sodipodi:nodetypes="ccccc" />
      <path
         inkscape:connector-curvature="0"
         style="fill:#000000;fill-opacity:1;stroke:#000000;stroke-width:0.1;stroke-linecap:butt;stroke-linejoin:round;stroke-miterlimit:4;stroke-dasharray:none;stroke-opacity:1"
         d="M 5.47836,17.45803 C 5.73911,16.23415 6.19117,15.25767 5.73067,15.01971 5.1872,14.73403 4.07075,14.16679 3.7071,13.97403 c 0.39509,0.32591 0.008,1.21445 -0.25231,2.43833 -0.30555,1.43423 -0.49802,3.07634 -0.0733,3.29579 l 1.16022,0.59953 0.86336,0.44613 c -0.4247,-0.21944 -0.23223,-1.86154 0.0733,-3.29578 z"
         id="path3724-8-5-0-6-9" />
      <path
         style="fill:none;fill-opacity:1;stroke:#000000;stroke-width:0.1;stroke-linecap:butt;stroke-linejoin:miter;stroke-miterlimit:4;stroke-dasharray:none;stroke-opacity:1"
         d="m 3.38147,19.70814 c 0.87768,0.45353 3.54441,-4.07081 4.37277,-3.64275 0.36365,0.19275 1.4801,0.75999 2.02357,1.04567 v 0 C 9.13124,16.77695 6.28272,21.20735 5.40505,20.75381 Z"
         id="path4740-2-0-1-9"
         inkscape:connector-curvature="0"
         sodipodi:nodetypes="ccccc" />
      <path
         id="path3724-8-9-8-6-9"
         d="m -7.24897,8.5818 c 0.27279,1.26353 -2.35473,4.28179 -1.51099,4.8523 l 1.16021,0.59953 0.86336,0.44614 C -8.01456,11.9366 -5.79202,9.50354 -7.24897,8.5818 Z"
         style="fill:#000000;fill-opacity:1;stroke:#000000;stroke-width:0.1;stroke-linecap:butt;stroke-linejoin:round;stroke-miterlimit:4;stroke-dasharray:none;stroke-opacity:1"
         inkscape:connector-curvature="0"
         sodipodi:nodetypes="ccccc" />
    </g>
    <g
       id="g1900"
       transform="translate(-118.63652,-135.93789)"
       style="fill:#000000;stroke:#000000">
      <rect
         y="176.18425"
         x="125.36562"
         height="4.0719151"
         width="25.067066"
         id="rect5128-2"
         style="fill:#000000;fill-opacity:1;fill-rule:nonzero;stroke:#000000;stroke-width:0.07397706;stroke-linejoin:round;stroke-miterlimit:4;stroke-dasharray:none;stroke-opacity:1" />
      <rect
         y="176.18425"
         x="125.36563"
         height="4.0719151"
         width="25.067066"
         id="rect5128-2-9"
         style="fill:#000000;fill-opacity:1;fill-rule:nonzero;stroke:#000000;stroke-width:0.07397707;stroke-linejoin:round;stroke-miterlimit:4;stroke-dasharray:none;stroke-opacity:1" />
    </g>
  </g>
</svg>
